solid OpenSCAD_Model
  facet normal 0 -1 0
    outer loop
      vertex -11 -26 0.55
      vertex -11 -26 0.45
      vertex 11 -26 0.45
    endloop
  endfacet
  facet normal 0 -1 0
    outer loop
      vertex 11 -26 0.55
      vertex -11 -26 0.55
      vertex 11 -26 0.45
    endloop
  endfacet
  facet normal 0 0 -1
    outer loop
      vertex -10 25 0.45
      vertex -11 26 0.45
      vertex 11 26 0.45
    endloop
  endfacet
  facet normal 0 0 -1
    outer loop
      vertex 10 25 0.45
      vertex -10 25 0.45
      vertex 11 26 0.45
    endloop
  endfacet
  facet normal 0 0 -1
    outer loop
      vertex -11 -26 0.45
      vertex -11 26 0.45
      vertex -10 -25 0.45
    endloop
  endfacet
  facet normal 0 0 -1
    outer loop
      vertex -11 -26 0.45
      vertex -10 -25 0.45
      vertex 11 -26 0.45
    endloop
  endfacet
  facet normal 0 0 -1
    outer loop
      vertex 10 25 0.45
      vertex 11 -26 0.45
      vertex 10 -25 0.45
    endloop
  endfacet
  facet normal 0 0 -1
    outer loop
      vertex -10 -25 0.45
      vertex 10 -25 0.45
      vertex 11 -26 0.45
    endloop
  endfacet
  facet normal 0 0 -1
    outer loop
      vertex 11 -26 0.45
      vertex 10 25 0.45
      vertex 11 26 0.45
    endloop
  endfacet
  facet normal 0 0 -1
    outer loop
      vertex -10 -25 0.45
      vertex -11 26 0.45
      vertex -10 25 0.45
    endloop
  endfacet
  facet normal -1 0 0
    outer loop
      vertex -11 -26 0.45
      vertex -11 -26 0.55
      vertex -11 26 0.45
    endloop
  endfacet
  facet normal -1 0 0
    outer loop
      vertex -11 26 0.45
      vertex -11 -26 0.55
      vertex -11 26 0.55
    endloop
  endfacet
  facet normal 0 -0.707107 0.707107
    outer loop
      vertex -10 -25 1.55
      vertex -11 -26 0.55
      vertex 11 -26 0.55
    endloop
  endfacet
  facet normal 0 -0.707107 0.707107
    outer loop
      vertex 10 -25 1.55
      vertex -10 -25 1.55
      vertex 11 -26 0.55
    endloop
  endfacet
  facet normal -0.707107 0 0.707107
    outer loop
      vertex -11 26 0.55
      vertex -11 -26 0.55
      vertex -10 -25 1.55
    endloop
  endfacet
  facet normal -0.707107 0 0.707107
    outer loop
      vertex -10 25 1.55
      vertex -11 26 0.55
      vertex -10 -25 1.55
    endloop
  endfacet
  facet normal 0.707107 0 0.707107
    outer loop
      vertex 10 25 1.55
      vertex 10 -25 1.55
      vertex 11 -26 0.55
    endloop
  endfacet
  facet normal 0.707107 0 0.707107
    outer loop
      vertex 11 26 0.55
      vertex 10 25 1.55
      vertex 11 -26 0.55
    endloop
  endfacet
  facet normal 1 0 0
    outer loop
      vertex 11 -26 0.55
      vertex 11 -26 0.45
      vertex 11 26 0.45
    endloop
  endfacet
  facet normal 1 0 0
    outer loop
      vertex 11 26 0.55
      vertex 11 -26 0.55
      vertex 11 26 0.45
    endloop
  endfacet
  facet normal 0 1 0
    outer loop
      vertex -11 26 0.45
      vertex -11 26 0.55
      vertex 11 26 0.45
    endloop
  endfacet
  facet normal 0 1 0
    outer loop
      vertex 11 26 0.45
      vertex -11 26 0.55
      vertex 11 26 0.55
    endloop
  endfacet
  facet normal -1 0 0
    outer loop
      vertex -10 -25 0.05
      vertex -10 -25 0.45
      vertex -10 25 0.05
    endloop
  endfacet
  facet normal -1 0 0
    outer loop
      vertex -10 25 0.05
      vertex -10 -25 0.45
      vertex -10 25 0.45
    endloop
  endfacet
  facet normal 0 1 0
    outer loop
      vertex -10 25 0.05
      vertex -10 25 0.45
      vertex 10 25 0.05
    endloop
  endfacet
  facet normal 0 1 0
    outer loop
      vertex 10 25 0.05
      vertex -10 25 0.45
      vertex 10 25 0.45
    endloop
  endfacet
  facet normal 1 0 0
    outer loop
      vertex 10 -25 0.45
      vertex 10 -25 0.05
      vertex 10 25 0.05
    endloop
  endfacet
  facet normal 1 0 0
    outer loop
      vertex 10 25 0.45
      vertex 10 -25 0.45
      vertex 10 25 0.05
    endloop
  endfacet
  facet normal 0 -1 0
    outer loop
      vertex -10 -25 0.45
      vertex -10 -25 0.05
      vertex 10 -25 0.05
    endloop
  endfacet
  facet normal 0 -1 0
    outer loop
      vertex 10 -25 0.45
      vertex -10 -25 0.45
      vertex 10 -25 0.05
    endloop
  endfacet
  facet normal 0 0.707107 0.707107
    outer loop
      vertex 11 26 0.55
      vertex -11 26 0.55
      vertex -10 25 1.55
    endloop
  endfacet
  facet normal 0 0.707107 0.707107
    outer loop
      vertex 10 25 1.55
      vertex 11 26 0.55
      vertex -10 25 1.55
    endloop
  endfacet
  facet normal 0 0 1
    outer loop
      vertex -10 25 1.55
      vertex -10 -25 1.55
      vertex 10 -25 1.55
    endloop
  endfacet
  facet normal 0 0 1
    outer loop
      vertex 10 25 1.55
      vertex -10 25 1.55
      vertex 10 -25 1.55
    endloop
  endfacet
  facet normal -0.970143 0 0.242536
    outer loop
      vertex -10.125 -25.125 -0.45
      vertex -10 -25 0.05
      vertex -10.125 25.125 -0.45
    endloop
  endfacet
  facet normal -0.970143 0 0.242536
    outer loop
      vertex -10.125 25.125 -0.45
      vertex -10 -25 0.05
      vertex -10 25 0.05
    endloop
  endfacet
  facet normal 0 0.970143 0.242536
    outer loop
      vertex -10.125 25.125 -0.45
      vertex -10 25 0.05
      vertex 10.125 25.125 -0.45
    endloop
  endfacet
  facet normal 0 0.970143 0.242536
    outer loop
      vertex 10.125 25.125 -0.45
      vertex -10 25 0.05
      vertex 10 25 0.05
    endloop
  endfacet
  facet normal 0 -0.970143 0.242536
    outer loop
      vertex -10 -25 0.05
      vertex -10.125 -25.125 -0.45
      vertex 10.125 -25.125 -0.45
    endloop
  endfacet
  facet normal 0 -0.970143 0.242536
    outer loop
      vertex 10 -25 0.05
      vertex -10 -25 0.05
      vertex 10.125 -25.125 -0.45
    endloop
  endfacet
  facet normal 0.970143 0 0.242536
    outer loop
      vertex 10 25 0.05
      vertex 10 -25 0.05
      vertex 10.125 -25.125 -0.45
    endloop
  endfacet
  facet normal 0.970143 0 0.242536
    outer loop
      vertex 10.125 25.125 -0.45
      vertex 10 25 0.05
      vertex 10.125 -25.125 -0.45
    endloop
  endfacet
  facet normal 0 1 0
    outer loop
      vertex -10.125 25.125 -0.55
      vertex -10.125 25.125 -0.45
      vertex 10.125 25.125 -0.55
    endloop
  endfacet
  facet normal 0 1 0
    outer loop
      vertex 10.125 25.125 -0.55
      vertex -10.125 25.125 -0.45
      vertex 10.125 25.125 -0.45
    endloop
  endfacet
  facet normal -1 0 0
    outer loop
      vertex -10.125 -25.125 -0.55
      vertex -10.125 -25.125 -0.45
      vertex -10.125 25.125 -0.55
    endloop
  endfacet
  facet normal -1 0 0
    outer loop
      vertex -10.125 25.125 -0.55
      vertex -10.125 -25.125 -0.45
      vertex -10.125 25.125 -0.45
    endloop
  endfacet
  facet normal 0 -1 0
    outer loop
      vertex -10.125 -25.125 -0.45
      vertex -10.125 -25.125 -0.55
      vertex 10.125 -25.125 -0.55
    endloop
  endfacet
  facet normal 0 -1 0
    outer loop
      vertex 10.125 -25.125 -0.45
      vertex -10.125 -25.125 -0.45
      vertex 10.125 -25.125 -0.55
    endloop
  endfacet
  facet normal 1 0 0
    outer loop
      vertex 10.125 -25.125 -0.45
      vertex 10.125 -25.125 -0.55
      vertex 10.125 25.125 -0.55
    endloop
  endfacet
  facet normal 1 0 0
    outer loop
      vertex 10.125 25.125 -0.45
      vertex 10.125 -25.125 -0.45
      vertex 10.125 25.125 -0.55
    endloop
  endfacet
  facet normal 0 0.992278 -0.124035
    outer loop
      vertex -10.125 25.125 -0.55
      vertex 10.125 25.125 -0.55
      vertex -10 25 -1.55
    endloop
  endfacet
  facet normal 0 0.992278 -0.124035
    outer loop
      vertex -10 25 -1.55
      vertex 10.125 25.125 -0.55
      vertex 10 25 -1.55
    endloop
  endfacet
  facet normal 0.992278 0 -0.124035
    outer loop
      vertex 10.125 -25.125 -0.55
      vertex 10 -25 -1.55
      vertex 10 25 -1.55
    endloop
  endfacet
  facet normal 0.992278 0 -0.124035
    outer loop
      vertex 10.125 25.125 -0.55
      vertex 10.125 -25.125 -0.55
      vertex 10 25 -1.55
    endloop
  endfacet
  facet normal -0.992278 0 -0.124035
    outer loop
      vertex -10.125 -25.125 -0.55
      vertex -10.125 25.125 -0.55
      vertex -10 -25 -1.55
    endloop
  endfacet
  facet normal -0.992278 0 -0.124035
    outer loop
      vertex -10 -25 -1.55
      vertex -10.125 25.125 -0.55
      vertex -10 25 -1.55
    endloop
  endfacet
  facet normal 0 -0.992278 -0.124035
    outer loop
      vertex 10.125 -25.125 -0.55
      vertex -10.125 -25.125 -0.55
      vertex -10 -25 -1.55
    endloop
  endfacet
  facet normal 0 -0.992278 -0.124035
    outer loop
      vertex 10 -25 -1.55
      vertex 10.125 -25.125 -0.55
      vertex -10 -25 -1.55
    endloop
  endfacet
  facet normal 0 0 -1
    outer loop
      vertex -8.75 23.75 -1.55
      vertex -10 25 -1.55
      vertex 10 25 -1.55
    endloop
  endfacet
  facet normal 0 0 -1
    outer loop
      vertex 8.75 23.75 -1.55
      vertex -8.75 23.75 -1.55
      vertex 10 25 -1.55
    endloop
  endfacet
  facet normal 0 0 -1
    outer loop
      vertex -10 -25 -1.55
      vertex -10 25 -1.55
      vertex -8.75 -23.75 -1.55
    endloop
  endfacet
  facet normal 0 0 -1
    outer loop
      vertex -10 -25 -1.55
      vertex -8.75 -23.75 -1.55
      vertex 10 -25 -1.55
    endloop
  endfacet
  facet normal 0 0 -1
    outer loop
      vertex 8.75 23.75 -1.55
      vertex 10 -25 -1.55
      vertex 8.75 -23.75 -1.55
    endloop
  endfacet
  facet normal 0 0 -1
    outer loop
      vertex -8.75 -23.75 -1.55
      vertex 8.75 -23.75 -1.55
      vertex 10 -25 -1.55
    endloop
  endfacet
  facet normal 0 0 -1
    outer loop
      vertex 10 -25 -1.55
      vertex 8.75 23.75 -1.55
      vertex 10 25 -1.55
    endloop
  endfacet
  facet normal 0 0 -1
    outer loop
      vertex -8.75 -23.75 -1.55
      vertex -10 25 -1.55
      vertex -8.75 23.75 -1.55
    endloop
  endfacet
  facet normal 1 0 0
    outer loop
      vertex -8.75 23.75 -1.55
      vertex -8.75 23.75 0.75
      vertex -8.75 -23.75 0.75
    endloop
  endfacet
  facet normal 1 0 0
    outer loop
      vertex -8.75 -23.75 -1.55
      vertex -8.75 23.75 -1.55
      vertex -8.75 -23.75 0.75
    endloop
  endfacet
  facet normal 0 -1 0
    outer loop
      vertex 8.75 23.75 -1.55
      vertex 8.75 23.75 0.75
      vertex -8.75 23.75 0.75
    endloop
  endfacet
  facet normal 0 -1 0
    outer loop
      vertex -8.75 23.75 -1.55
      vertex 8.75 23.75 -1.55
      vertex -8.75 23.75 0.75
    endloop
  endfacet
  facet normal -1 0 0
    outer loop
      vertex 8.75 23.75 0.75
      vertex 8.75 23.75 -1.55
      vertex 8.75 -23.75 0.75
    endloop
  endfacet
  facet normal -1 0 0
    outer loop
      vertex 8.75 -23.75 0.75
      vertex 8.75 23.75 -1.55
      vertex 8.75 -23.75 -1.55
    endloop
  endfacet
  facet normal 0 1 0
    outer loop
      vertex 8.75 -23.75 0.75
      vertex 8.75 -23.75 -1.55
      vertex -8.75 -23.75 0.75
    endloop
  endfacet
  facet normal 0 1 0
    outer loop
      vertex -8.75 -23.75 0.75
      vertex 8.75 -23.75 -1.55
      vertex -8.75 -23.75 -1.55
    endloop
  endfacet
  facet normal 0 0 -1
    outer loop
      vertex 8.75 23.75 0.75
      vertex 8.75 -23.75 0.75
      vertex -8.75 23.75 0.75
    endloop
  endfacet
  facet normal 0 0 -1
    outer loop
      vertex -8.75 23.75 0.75
      vertex 8.75 -23.75 0.75
      vertex -8.75 -23.75 0.75
    endloop
  endfacet
endsolid OpenSCAD_Model
